<?xml version="1.0" encoding="utf-8"?>
<!-- Generator: Adobe Illustrator 16.0.0, SVG Export Plug-In . SVG Version: 6.00 Build 0)  -->
<!DOCTYPE svg PUBLIC "-//W3C//DTD SVG 1.1//EN" "http://www.w3.org/Graphics/SVG/1.1/DTD/svg11.dtd">
<svg version="1.1" id="Layer_1" xmlns="http://www.w3.org/2000/svg" xmlns:xlink="http://www.w3.org/1999/xlink" x="0px" y="0px"
	 width="720px" height="720px" viewBox="0 0 720 720" enable-background="new 0 0 720 720" xml:space="preserve">
<g>
	<rect x="0" fill="#050505" width="720" height="720"/>
	<linearGradient id="SVGID_1_" gradientUnits="userSpaceOnUse" x1="115.0083" y1="283.8271" x2="449.0029" y2="283.8271">
		<stop  offset="0" style="stop-color:#D59F2A"/>
		<stop  offset="0.1935" style="stop-color:#EDCB55"/>
		<stop  offset="0.3871" style="stop-color:#EBCF55"/>
		<stop  offset="0.5215" style="stop-color:#EDF28D"/>
		<stop  offset="0.672" style="stop-color:#EBCF55"/>
		<stop  offset="0.8441" style="stop-color:#EDCB55"/>
		<stop  offset="1" style="stop-color:#D59F2A"/>
	</linearGradient>
	<path fill="url(#SVGID_1_)" d="M131.538,234.033c0,0-9.055-5.114,1.013-7.542l70.793,0.192l49.454,109.368l71.933-0.383
		l47.997-108.154l73.136,0.064c0,0,7.472,4.347-0.634,6.903l-10.004-0.255c0,0-16.337,2.813-21.213,17.514l0.696,89.425
		l-291.782-1.406c0,0-17.73,0.383-0.127-3.324l42.298-0.255l-0.38-85.27C164.718,250.908,166.744,236.334,131.538,234.033z"/>
	<polygon fill="#000506" points="210.815,336.178 194.352,335.794 182.194,336.434 182.321,304.474 182.194,271.619 192.833,295.78 
			"/>
	<polygon fill="#000506" points="345.183,335.539 361.266,336.05 375.956,336.306 375.702,303.579 375.196,263.437 359.239,300.255 
			"/>
	<linearGradient id="SVGID_2_" gradientUnits="userSpaceOnUse" x1="474.6592" y1="284.2744" x2="600.4775" y2="284.2744">
		<stop  offset="0" style="stop-color:#7A7572"/>
		<stop  offset="0.1935" style="stop-color:#BDB9B4"/>
		<stop  offset="0.3871" style="stop-color:#D9D9D4"/>
		<stop  offset="0.5215" style="stop-color:#E8E7E1"/>
		<stop  offset="1" style="stop-color:#7E7674"/>
	</linearGradient>
	<path fill="url(#SVGID_2_)" d="M476.51,226.874l110.178,1.023c0,0,2.28,3.58-1.013,7.415h-13.931c0,0-15.45,2.813-21.022,17.642
		l0.507,83.353l40.019,0.511c0,0,20.769,2.301,0,3.324l-79.024,1.534l-0.254-90c0,0-5.065-16.875-26.848-16.619h-8.358
		C476.763,235.056,472.203,229.431,476.51,226.874z"/>
	<linearGradient id="SVGID_3_" gradientUnits="userSpaceOnUse" x1="451.5908" y1="425.041" x2="600.1631" y2="425.041">
		<stop  offset="0" style="stop-color:#D59F2A"/>
		<stop  offset="0.1935" style="stop-color:#EDCB55"/>
		<stop  offset="0.3871" style="stop-color:#EBCF55"/>
		<stop  offset="0.5215" style="stop-color:#EDF28D"/>
		<stop  offset="0.672" style="stop-color:#EBCF55"/>
		<stop  offset="0.8441" style="stop-color:#EDCB55"/>
		<stop  offset="1" style="stop-color:#D59F2A"/>
	</linearGradient>
	<path fill="url(#SVGID_3_)" d="M511.969,369.035l78.012,0.255c0,0,23.134,0.852-0.336,2.813l-38.668,0.256l-0.592,44.062
		c0,0-2.845,47.016-32.082,58.212c-12.242,4.686-54.09,16.115-65.011-11.081c-2.53-6.306-5.93-30.445,20.18-27.869
		c3.461,0.342,16.159,3.372,13.846,23.438c-0.421,3.665,7.684,9.376,13.256,6.563s11.568-14.83,11.483-20.88L511.969,369.035z"/>
	<linearGradient id="SVGID_4_" gradientUnits="userSpaceOnUse" x1="118.6313" y1="423.1738" x2="447.9385" y2="423.1738">
		<stop  offset="0" style="stop-color:#7A7572"/>
		<stop  offset="0.1935" style="stop-color:#BDB9B4"/>
		<stop  offset="0.3871" style="stop-color:#D9D9D4"/>
		<stop  offset="0.5215" style="stop-color:#E8E7E1"/>
		<stop  offset="1" style="stop-color:#7E7674"/>
	</linearGradient>
	<path fill="url(#SVGID_4_)" d="M122.673,369.035l291.782-0.77l-0.253,81.181c0,0,4.306,18.793,19.882,19.049
		c15.577,0.256,12.538,0.512,12.538,0.512s2.786,3.451,0.253,8.182l-104.352,0.895c0,0-6.712-6.137,0.886-10.355l14.057,0.128
		c0,0,17.476-4.602,17.983-15.341V372.23l-47.743,0.256l-46.604,104.574h-6.332l-47.871-104.83l-44.831,0.384l0.38,76.577
		c0,0-1.773,15.469,20.136,18.792h14.817c0,0,4.306,3.963,0.126,8.821l-87.763,0.256l-0.126-8.949h15.577
		c0,0,18.997-7.798,19.63-16.363l0.253-79.134l-34.7-0.384C130.398,372.23,110.262,371.08,122.673,369.035z"/>
	<path fill="#000506" d="M265.61,373.296L265.61,373.296z"/>
	<polygon fill="#000506" points="271.52,372.784 308.668,372.442 291.445,415.058 	"/>
</g>
</svg>
